<?xml version="1.0" standalone="no"?><!DOCTYPE svg PUBLIC "-//W3C//DTD SVG 1.1//EN" "http://www.w3.org/Graphics/SVG/1.1/DTD/svg11.dtd"><svg t="1516161214534" class="icon" style="" viewBox="0 0 1024 1024" version="1.1" xmlns="http://www.w3.org/2000/svg" p-id="1032" xmlns:xlink="http://www.w3.org/1999/xlink" width="200" height="200"><defs><style type="text/css"></style></defs><path d="M509.187 509.198m-444.975 0a444.975 444.975 0 1 0 889.95 0 444.975 444.975 0 1 0-889.95 0Z" fill="#4F5D73" p-id="1033"></path><path d="M674.728 725.33c-53.133-23.089-72.546-58.991-78.464-89.95 38.27-30.794 68.737-80.038 85.493-133.112 17.225-21.962 27.261-44.854 27.261-64.247 0-13.279-4.828-22.882-13.276-30.008-2.826-112.712-82.622-203.204-181.307-204.603-0.771-0.011-1.519-0.132-2.293-0.132-0.303 0-0.596 0.05-0.899 0.052-98.06 0.545-177.749 89.135-182.511 200.359-12.296 7.345-19.378 18.142-19.378 34.333 0 22.817 13.799 50.474 37.03 75.752 16.508 46.264 43.358 88.722 76.481 117.337-4.925 31.873-23.628 70.063-79.221 94.22-30.015 13.042-84.893 24.765-108.573 36.838 60.658 66.317 175.549 108.036 272.391 108.529l1.376 0.035c0.116 0 0.231 0.008 0.347 0.008 97.536 0 213.095-41.859 274.114-108.572-23.678-12.074-78.556-23.797-108.571-36.839z" fill="#231F20" p-id="1034"></path><path d="M674.728 697.519c-53.133-23.089-72.546-58.991-78.464-89.95 38.27-30.794 68.737-80.038 85.493-133.112 17.225-21.962 27.261-44.854 27.261-64.247 0-13.279-4.828-22.882-13.276-30.008-2.826-112.712-82.622-203.204-181.307-204.603-0.771-0.011-1.519-0.132-2.293-0.132-0.303 0-0.596 0.05-0.899 0.052-98.06 0.545-177.749 89.135-182.511 200.359-12.296 7.345-19.378 18.142-19.378 34.333 0 22.817 13.799 50.474 37.03 75.752 16.508 46.264 43.358 88.722 76.481 117.337-4.925 31.873-23.628 70.063-79.221 94.22-30.015 13.042-84.893 24.765-108.573 36.838 60.658 66.317 175.549 108.036 272.391 108.529l1.376 0.035c0.116 0 0.231 0.008 0.347 0.008 97.536 0 213.095-41.859 274.114-108.572-23.678-12.074-78.556-23.797-108.571-36.839z" fill="#FFFFFF" p-id="1035"></path></svg>